<svg xmlns="http://www.w3.org/2000/svg"  viewBox="0 0 50 50" width="50px" height="50px"><path d="M 16.5 5 C 7.95 5 1 13.08 1 23 C 1 27.07 2.1492969 30.929844 4.2792969 34.089844 C 2.9692969 34.409844 2 35.59 2 37 L 2 38.1875 C 0.8426788 38.604868 0 39.706873 0 41 L 0 42.744141 C 0 44.813775 2.1654419 46.149468 4.1777344 45.626953 C 5.3749799 45.316357 5.9927197 45 8.0058594 45 C 9.6622028 45 10.356821 45.210943 11.232422 45.460938 C 12.108023 45.710931 13.163582 46 15.009766 46 C 15.471075 46 15.88378 45.982178 16.255859 45.951172 C 17.372096 45.858154 18.128906 45.648437 18.785156 45.460938 C 19.441406 45.273438 19.997096 45.108154 20.931641 45.037109 C 21.243155 45.013428 21.596075 45 22.009766 45 C 23.662946 45 24.358172 45.210937 25.232422 45.460938 C 26.106672 45.710938 27.160086 46 29.003906 46 C 29.465098 46 29.876154 45.982178 30.248047 45.951172 C 31.363727 45.858154 32.121281 45.648438 32.777344 45.460938 C 33.433406 45.273438 33.9893 45.108154 34.923828 45.037109 C 35.235338 45.013428 35.588394 45 36.001953 45 C 38.010134 45 38.624652 45.314486 39.818359 45.625 C 41.077167 45.953272 42.394987 45.5543 43.207031 44.703125 C 43.531849 44.362655 43.775938 43.949865 43.902344 43.482422 C 43.965546 43.2487 44 43.001038 44 42.742188 L 44 41 C 44 40.794379 43.979718 40.592918 43.939453 40.398438 C 43.899189 40.203957 43.838087 40.01707 43.761719 39.837891 C 43.423516 39.044384 42.746679 38.434044 41.921875 38.162109 C 41.869698 36.740413 41.90987 35.331208 41.988281 33.927734 C 42.083281 32.155734 42.268094 30.395578 42.496094 28.642578 C 42.719094 26.888578 43.038828 25.148969 43.423828 23.417969 C 43.78303 21.849635 44.213389 20.291318 44.802734 18.755859 C 47.787733 17.956101 50 15.230588 50 12 C 50 8.1458524 46.854151 5 43 5 C 40.454754 5 38.225411 6.3760884 37 8.4179688 C 35.774589 6.3760884 33.545246 5 31 5 C 27.145849 5 24 8.1458524 24 12 C 24 15.230588 26.212267 17.956101 29.197266 18.755859 C 29.878799 20.301772 30.392354 21.881678 30.833984 23.472656 C 31.300984 25.196656 31.704719 26.9325 32.011719 28.6875 C 32.322719 30.4415 32.589531 32.205375 32.769531 33.984375 C 32.861531 34.873875 32.940859 35.764859 32.990234 36.662109 C 33.014672 37.106203 33.032742 37.552818 33.041016 38 L 31 38 L 31 37 C 31 36.91 31.000234 36.830234 30.990234 36.740234 C 30.880234 35.440234 29.940703 34.380078 28.720703 34.080078 C 29.360703 33.130078 29.909141 32.109062 30.369141 31.039062 C 30.269141 30.399062 30.159062 29.739062 30.039062 29.039062 C 29.759062 27.429063 29.390391 25.79 28.900391 24 C 28.510391 22.58 28.130937 21.409141 27.710938 20.369141 C 24.370938 19.049141 22 15.8 22 12 C 22 10.14 22.570781 8.4009375 23.550781 6.9609375 C 21.390781 5.6709375 19 5 16.5 5 z M 31 7 C 33.773271 7 36 9.2267307 36 12 C 36 14.773269 33.773271 17 31 17 C 28.226729 17 26 14.773269 26 12 C 26 9.2267307 28.226729 7 31 7 z M 43 7 C 45.773271 7 48 9.2267307 48 12 C 48 14.773269 45.773271 17 43 17 C 40.226729 17 38 14.773269 38 12 C 38 9.2267307 40.226729 7 43 7 z M 31 9 A 3 3 0 0 0 31 15 A 3 3 0 0 0 31 9 z M 43 9 A 3 3 0 0 0 43 15 A 3 3 0 0 0 43 9 z M 11.404297 11.445312 C 11.701172 11.435625 12.017344 11.464062 12.339844 11.539062 C 13.629844 11.829063 14.519844 12.729063 14.339844 13.539062 C 14.149844 14.339063 12.950156 14.760937 11.660156 14.460938 C 10.370156 14.170938 9.4801563 13.270938 9.6601562 12.460938 C 9.8026563 11.860937 10.513672 11.474375 11.404297 11.445312 z M 17.382812 13.919922 C 18.015625 13.847266 18.815391 14.233438 19.400391 14.960938 C 20.180391 15.920937 20.290625 17.130391 19.640625 17.650391 C 19.000625 18.170391 17.840547 17.809844 17.060547 16.839844 C 16.280547 15.869844 16.170312 14.670391 16.820312 14.150391 C 16.980313 14.020391 17.171875 13.944141 17.382812 13.919922 z M 37 15.582031 C 37.907891 17.094833 39.365441 18.236678 41.097656 18.728516 C 41.189588 20.194266 41.160774 21.643312 41.076172 23.083984 C 40.961172 24.852984 40.779906 26.613375 40.503906 28.359375 C 40.231906 30.106375 39.916719 31.846219 39.511719 33.574219 C 39.167115 35.059196 38.774286 36.53742 38.269531 38 L 36.714844 38 C 36.629865 37.787324 36.538986 37.574965 36.458984 37.361328 C 35.983531 36.091672 35.590766 34.806375 35.228516 33.515625 C 34.741516 31.794625 34.343281 30.0585 33.988281 28.3125 C 33.629281 26.5675 33.363062 24.803344 33.164062 23.027344 C 33.013662 21.605744 32.916314 20.174815 32.933594 18.720703 C 34.652317 18.224078 36.097507 17.085839 37 15.582031 z M 11.492188 19.490234 C 12.019687 19.455234 12.549062 19.510391 13.039062 19.650391 C 14.039062 19.910391 14.880781 20.459844 15.550781 21.089844 C 16.900781 22.379844 17.629141 23.979062 18.119141 25.539062 C 18.609141 27.119063 18.810859 28.709062 18.880859 30.289062 C 18.995679 32.921078 18.691761 35.480841 18.222656 38 L 14.189453 38 C 14.859399 35.471128 15.352743 32.88943 15.380859 30.349609 C 15.400859 28.999609 15.300234 27.659922 14.990234 26.419922 C 14.690234 25.189922 14.189453 24.010469 13.439453 23.230469 C 12.699453 22.430469 11.799297 22.120391 11.029297 22.400391 C 10.239297 22.650391 9.5896094 23.640312 9.3496094 24.820312 C 9.0996094 26.030313 9.17 27.380312 9.75 27.820312 C 10.25 28.280313 10.92 28.08 11 27 L 11 26.970703 C 11.04 26.420703 11.520078 26.010781 12.080078 26.050781 C 12.590078 26.090781 12.98 26.5 13 27 C 13.04 27.92 12.670625 29.120781 11.640625 29.800781 C 11.130625 30.110781 10.519922 30.270938 9.9199219 30.210938 C 9.3399219 30.140937 8.7600781 29.930312 8.3300781 29.570312 C 7.4400781 28.870313 7.040625 27.860703 6.890625 26.970703 C 6.760625 26.040703 6.760625 25.250625 6.890625 24.390625 C 7.030625 23.540625 7.2795312 22.669609 7.7695312 21.849609 C 8.2495313 21.039609 9.0009375 20.289141 9.9609375 19.869141 C 10.440938 19.649141 10.964688 19.525234 11.492188 19.490234 z M 22.0625 20.070312 C 22.783008 20.093965 23.570938 20.904531 23.929688 22.050781 C 24.339688 23.370781 24.040234 24.640625 23.240234 24.890625 C 22.450234 25.130625 21.480312 24.259219 21.070312 22.949219 C 20.660312 21.629219 20.959766 20.359375 21.759766 20.109375 C 21.858516 20.079375 21.95957 20.066934 22.0625 20.070312 z M 3 40 L 41 40 C 41.56503 40 42 40.43497 42 41 L 42 42.742188 C 42 43.353383 41.232127 43.926218 40.324219 43.689453 A 1.0001 1.0001 0 0 0 40.322266 43.689453 C 39.29402 43.421967 38.241772 43 36.001953 43 C 35.540762 43 35.129706 43.017822 34.757812 43.048828 C 33.642133 43.141846 32.884578 43.351562 32.228516 43.539062 C 31.572453 43.726562 31.01656 43.891846 30.082031 43.962891 C 29.770522 43.986572 29.417465 44 29.003906 44 C 27.764021 44 27.063724 43.881592 26.421875 43.716797 C 26.207925 43.661865 25.999813 43.601563 25.78125 43.539062 C 24.907 43.289062 23.853585 43 22.009766 43 C 21.548456 43 21.135751 43.017822 20.763672 43.048828 C 19.647435 43.141846 18.890625 43.351563 18.234375 43.539062 C 17.578125 43.726562 17.022435 43.891846 16.087891 43.962891 C 15.776376 43.986572 15.423456 44 15.009766 44 C 13.353949 44 12.658852 43.789069 11.783203 43.539062 C 10.907554 43.289057 9.8525159 43 8.0058594 43 C 5.760999 43 4.7065359 43.424002 3.6757812 43.691406 C 2.7686279 43.927515 2 43.355834 2 42.744141 L 2 41 C 2 40.858742 2.0265649 40.725705 2.0761719 40.605469 C 2.2249929 40.244761 2.5762273 40 3 40 z"/></svg>