<svg xmlns="http://www.w3.org/2000/svg"  viewBox="0 0 50 50" width="50px" height="50px"><path d="M 14.798828 3 C 14.56374 3.0075786 14.327469 3.0295061 14.091797 3.0664062 C 13.463337 3.1648068 12.834694 3.374426 12.224609 3.7265625 C 9.6892525 5.1900973 8.2653516 7.4696865 8.0351562 9.8691406 C 7.8681804 11.609624 8.3194152 13.387229 9.296875 14.978516 C 5.7193636 18.385212 3 21.948837 3 24.419922 C 3 27.179922 6.5391406 30.259063 10.869141 32.789062 C 15.999141 35.779063 22.24 38 25 38 C 27.76 38 34.000859 35.779063 39.130859 32.789062 C 43.460859 30.259062 47 27.179922 47 24.419922 C 47 21.948837 44.280636 18.385212 40.703125 14.978516 C 41.680585 13.387229 42.131819 11.609624 41.964844 9.8691406 C 41.734648 7.4696865 40.310748 5.1900973 37.775391 3.7265625 C 37.165306 3.374426 36.536663 3.1648067 35.908203 3.0664062 C 34.022822 2.7712049 32.129058 3.4695485 30.660156 4.2773438 C 29.610518 4.8545724 28.777223 5.4742188 28.177734 5.9648438 C 26.876598 5.3585677 25.769448 5 25 5 C 24.230552 5 23.123402 5.3585677 21.822266 5.9648438 C 21.222777 5.4742188 20.389482 4.8545724 19.339844 4.2773438 C 18.054555 3.5705229 16.444447 2.9469495 14.798828 3 z M 15.09375 5.0019531 C 15.311597 5.0062545 15.530927 5.0276616 15.751953 5.0625 C 16.636057 5.2018535 17.536221 5.5689052 18.376953 6.03125 C 19.760738 6.7922365 20.44166 7.4704989 20.783203 7.7832031 C 20.219797 9.1695001 18.043677 13.281541 11.757812 14.837891 C 10.508711 13.351541 9.8720146 11.659267 10.025391 10.060547 C 10.194195 8.3010009 11.170967 6.6444495 13.224609 5.4589844 C 13.805733 5.123564 14.440208 4.9890489 15.09375 5.0019531 z M 34.90625 5.0019531 C 35.559792 4.9890489 36.194267 5.1235638 36.775391 5.4589844 C 38.829033 6.6444495 39.805805 8.3010009 39.974609 10.060547 C 40.127985 11.659267 39.49129 13.351541 38.242188 14.837891 C 31.956323 13.281541 29.780203 9.1695001 29.216797 7.7832031 C 29.55834 7.4704989 30.239262 6.7922365 31.623047 6.03125 C 32.463779 5.5689052 33.363943 5.2018535 34.248047 5.0625 C 34.469073 5.0276616 34.688403 5.0062545 34.90625 5.0019531 z M 17.816406 6.6347656 C 17.816406 6.6347656 16.725385 7.0913153 15.322266 8.0273438 A 2 2 0 0 0 15 8 A 2 2 0 0 0 13.005859 9.8789062 C 12.297982 10.550401 11.604956 11.318744 11.011719 12.208984 L 12.675781 13.318359 C 13.066643 12.731814 13.525439 12.214404 14 11.730469 A 2 2 0 0 0 15 12 A 2 2 0 0 0 16.908203 9.4101562 C 17.8818 8.8030946 18.605469 8.4726562 18.605469 8.4726562 L 17.816406 6.6347656 z M 32.183594 6.6347656 L 31.394531 8.4726562 C 31.394531 8.4726562 32.1182 8.8030946 33.091797 9.4101562 A 2 2 0 0 0 35 12 A 2 2 0 0 0 36.001953 11.730469 C 36.476162 12.214148 36.933621 12.732209 37.324219 13.318359 L 38.988281 12.208984 C 38.395044 11.318744 37.702018 10.550401 36.994141 9.8789062 A 2 2 0 0 0 35 8 A 2 2 0 0 0 34.677734 8.0273438 C 33.274615 7.0913153 32.183594 6.6347656 32.183594 6.6347656 z M 10.949219 21 C 11.338094 20.980172 11.719641 21.190953 11.900391 21.564453 C 12.139391 22.060453 11.934406 22.656437 11.441406 22.898438 C 11.329406 22.954437 10.822578 23.230812 10.392578 23.757812 C 12.542578 25.206813 18.768 29 25 29 C 31.245 29 37.463375 25.205859 39.609375 23.755859 C 39.152375 23.194859 38.610453 22.922391 38.564453 22.900391 C 38.067453 22.660391 37.859609 22.061453 38.099609 21.564453 C 38.339609 21.068453 38.936547 20.858609 39.435547 21.099609 C 40.801547 21.759609 43.084266 23.909406 41.947266 27.316406 C 41.808266 27.735406 41.419 28 41 28 C 40.896 28 40.788594 27.984219 40.683594 27.949219 C 40.159594 27.774219 39.877734 27.207594 40.052734 26.683594 C 40.165734 26.344594 40.223188 26.032187 40.242188 25.742188 C 37.588187 27.480188 31.427 31 25 31 C 18.575 31 12.414766 27.481188 9.7597656 25.742188 C 9.7787656 26.032188 9.8342656 26.344594 9.9472656 26.683594 C 10.122266 27.207594 9.8404062 27.772266 9.3164062 27.947266 C 9.2114063 27.982266 9.104 28 9 28 C 8.581 28 8.1907813 27.734406 8.0507812 27.316406 C 6.9157812 23.908406 9.1984531 21.759609 10.564453 21.099609 C 10.688703 21.039359 10.819594 21.006609 10.949219 21 z M 37.980469 35.669922 C 32.890469 38.299922 27.45 40 25 40 C 22.59 40 17.279766 38.349062 12.259766 35.789062 C 12.929766 37.039062 13.380859 38.510469 13.380859 40.230469 C 13.380859 46.920469 25.089844 46.919922 25.089844 46.919922 C 25.089844 46.919922 36.789062 46.920469 36.789062 40.230469 C 36.789062 38.450469 37.270469 36.939922 37.980469 35.669922 z"/></svg>