<svg xmlns="http://www.w3.org/2000/svg"  viewBox="0 0 50 50" width="50px" height="50px"><path d="M 24.96875 2.082031 C 18.707031 2.082031 13.578125 6.882813 13.03125 13 C 13.03125 13 20.042969 12.996094 20.078125 13 C 20.535156 10.707031 22.554688 9 24.980469 9 C 27.402344 9 29.425781 10.707031 29.878906 13 C 29.914063 12.996094 36.90625 13 36.90625 13 C 36.359375 6.882813 31.230469 2.082031 24.96875 2.082031 Z M 24.457031 13 C 24.429688 13 24.402344 13 24.375 13.003906 C 23.578125 13.050781 22.960938 13.707031 22.957031 14.5 C 22.957031 15.328125 23.628906 16 24.457031 16 C 24.460938 16 24.464844 16 24.46875 16 C 24.472656 16 24.476563 16 24.480469 16 C 24.507813 16 24.535156 16 24.5625 15.996094 C 25.359375 15.953125 25.980469 15.296875 25.980469 14.5 C 25.980469 13.722656 25.382813 13.074219 24.609375 13.007813 C 24.566406 13.003906 24.523438 13 24.480469 13 C 24.476563 13 24.472656 13 24.46875 13 C 24.464844 13 24.460938 13 24.457031 13 Z M 20.078125 14.980469 C 20.042969 14.984375 20.015625 15 19.980469 15 L 13 15 L 13 23.566406 C 17.65625 27.644531 19.582031 29.28125 20.402344 30 L 29.417969 30 L 36.960938 23.625 L 36.960938 15 L 29.980469 15 C 29.945313 15 29.914063 14.984375 29.878906 14.980469 C 29.425781 17.273438 27.40625 19 24.980469 19 C 22.554688 19 20.535156 17.273438 20.078125 14.980469 Z M 20.863281 23.007813 C 21.117188 22.976563 21.378906 23.042969 21.59375 23.210938 C 21.636719 23.242188 22.710938 24 24.980469 24 C 27.285156 24 28.355469 23.21875 28.367188 23.207031 C 28.804688 22.882813 29.429688 22.960938 29.765625 23.394531 C 30.097656 23.824219 30.03125 24.4375 29.605469 24.78125 C 29.449219 24.90625 27.992188 26 24.980469 26 C 21.96875 26 20.511719 24.90625 20.355469 24.78125 C 19.925781 24.433594 19.855469 23.804688 20.199219 23.375 C 20.371094 23.160156 20.609375 23.039063 20.863281 23.007813 Z M 12.773438 26.027344 C 12.683594 26.042969 12.59375 26.066406 12.503906 26.109375 C 11.6875 26.511719 9.226563 28.589844 9.019531 38.640625 C 8.96875 38.785156 8.949219 38.9375 8.960938 39.085938 C 8.960938 39.085938 8.992188 39.253906 9.007813 39.363281 C 9.007813 39.472656 9.003906 39.574219 9.003906 39.683594 C 8.96875 39.792969 8.953125 39.910156 8.957031 40.027344 C 8.949219 40.152344 8.898438 41.019531 8.992188 42.117188 C 9.09375 43.296875 9.25 44.703125 10.25 45.707031 C 10.496094 45.960938 10.859375 46.070313 11.203125 45.988281 C 11.546875 45.90625 11.824219 45.648438 11.925781 45.3125 C 12.027344 45.429688 12.105469 45.546875 12.214844 45.667969 C 12.582031 46.078125 13.214844 46.113281 13.625 45.746094 C 14.035156 45.378906 14.074219 44.746094 13.703125 44.332031 C 13.59375 44.207031 13.507813 44.085938 13.40625 43.964844 C 13.714844 43.992188 13.976563 44 13.976563 44 C 14.527344 43.988281 14.96875 43.535156 14.957031 42.984375 C 14.949219 42.429688 14.492188 41.992188 13.941406 42 C 13.941406 42 13.261719 42.003906 12.535156 41.71875 C 12.207031 41.589844 11.894531 41.414063 11.628906 41.167969 C 11.097656 39.972656 11 39.21875 10.980469 39.046875 C 11.085938 31.941406 12.339844 29.246094 13 28.339844 L 13 36.082031 C 13 39.695313 15.714844 42.605469 19.222656 42.964844 L 20.011719 45.316406 C 20.144531 45.726563 20.527344 46 20.957031 46 L 22.957031 46 C 23.390625 46 23.773438 45.726563 23.90625 45.316406 L 24.679688 43 L 25.238281 43 L 26.011719 45.316406 C 26.144531 45.726563 26.527344 46 26.957031 46 L 28.957031 46 C 29.390625 46 29.773438 45.726563 29.90625 45.316406 L 30.691406 42.964844 C 34.207031 42.605469 36.957031 39.695313 36.957031 36.082031 L 36.957031 28.375 C 37.628906 29.3125 38.832031 32.023438 38.9375 39.046875 C 38.921875 39.214844 38.820313 39.96875 38.289063 41.167969 C 38.023438 41.414063 37.710938 41.589844 37.378906 41.71875 C 36.65625 42.003906 35.976563 42 35.976563 42 C 35.425781 41.992188 34.96875 42.429688 34.960938 42.984375 C 34.949219 43.535156 35.390625 43.988281 35.941406 44 C 35.941406 44 36.203125 43.992188 36.511719 43.964844 C 36.410156 44.085938 36.324219 44.207031 36.214844 44.332031 C 35.84375 44.746094 35.882813 45.378906 36.292969 45.746094 C 36.703125 46.113281 37.335938 46.078125 37.703125 45.667969 C 37.808594 45.550781 37.894531 45.433594 37.992188 45.316406 C 38.097656 45.652344 38.375 45.90625 38.71875 45.988281 C 39.0625 46.066406 39.421875 45.960938 39.667969 45.707031 C 40.667969 44.703125 40.824219 43.296875 40.921875 42.117188 C 41.019531 41.011719 40.964844 40.128906 40.957031 40.015625 C 40.960938 40.007813 40.960938 40.003906 40.957031 40 C 40.960938 39.960938 40.960938 39.921875 40.957031 39.886719 C 40.957031 39.882813 40.957031 39.882813 40.957031 39.878906 C 40.957031 39.625 40.949219 39.390625 40.945313 39.140625 C 40.945313 39.136719 40.953125 39.085938 40.953125 39.085938 C 40.964844 38.988281 40.960938 38.886719 40.9375 38.792969 C 40.941406 38.789063 40.941406 38.789063 40.9375 38.785156 C 40.75 28.617188 38.242188 26.511719 37.410156 26.109375 C 37.359375 26.082031 37.304688 26.078125 37.25 26.0625 L 31 31.402344 L 31 37.082031 C 31 37.628906 31.398438 38.074219 31.941406 38.082031 C 31.976563 38.082031 32.015625 38.082031 32.066406 38.082031 C 32.515625 38.082031 33.585938 38.046875 34.640625 37.785156 C 33.941406 39.703125 32.117188 41 29.957031 41 L 26.117188 41 C 26.050781 40.988281 25.984375 40.984375 25.917969 40.984375 C 25.875 40.988281 25.832031 40.992188 25.789063 41 L 24.003906 41 C 23.976563 41 23.949219 41 23.921875 41 L 20.117188 41 C 20.050781 40.988281 19.984375 40.984375 19.917969 40.984375 C 19.894531 40.988281 19.871094 40.988281 19.847656 40.992188 C 17.742188 40.949219 15.964844 39.667969 15.277344 37.785156 C 16.332031 38.046875 17.402344 38.085938 17.847656 38.085938 C 17.898438 38.085938 17.941406 38.082031 17.972656 38.082031 C 18.519531 38.074219 18.957031 37.632813 18.957031 37.082031 L 18.957031 31.480469 C 17.878906 30.535156 15.757813 28.664063 13.941406 27.070313 C 13.941406 27.0625 13.9375 27.054688 13.9375 27.046875 Z M 27.957031 46 C 26.855469 46 25.957031 46.894531 25.957031 48 L 29.957031 48 C 29.957031 46.894531 29.0625 46 27.957031 46 Z M 21.957031 46 C 20.855469 46 19.957031 46.894531 19.957031 48 L 23.957031 48 C 23.957031 46.894531 23.0625 46 21.957031 46 Z M 21.34375 43 L 22.574219 43 L 22.238281 44 L 21.679688 44 Z M 27.34375 43 L 28.574219 43 L 28.238281 44 L 27.679688 44 Z"/></svg>